/* XPM */
static char * bottom_active_xpm[] = {
"20 4 3 1",
" 	c None",
".	c #262626",
"+	c #777778",
"....................",
"....................",
"....................",
"++++++++++++++++++++"};
