/* XPM */
static char * bottom_right_inactive_xpm[] = {
"20 20 3 1",
" 	c None",
".	c #262626",
"+	c #666666",
"                ...+",
"                ...+",
"                ...+",
"                ...+",
"                ...+",
"                ...+",
"                ...+",
"                ...+",
"                ...+",
"                ...+",
"                ...+",
"                ...+",
"                ...+",
"                ...+",
"                ...+",
"                ...+",
"...................+",
"...................+",
"...................+",
"++++++++++++++++++++"};
