/* XPM */
static char * hide_pressed_xpm[] = {
"22 22 11 1",
" 	c None",
".	c #777877",
"+	c #777878",
"@	c #797979",
"#	c #777778",
"$	c #787878",
"%	c #787777",
"&	c #787778",
"*	c #262626",
"=	c #C4C4C4",
"-	c #E6E6E6",
"..++@@@####++++$$$%%&&",
"**********************",
"**********************",
"**********************",
"**********************",
"**********************",
"**********************",
"**********************",
"**********************",
"**********************",
"**********************",
"**********************",
"**********************",
"**********************",
"******==========******",
"******----------******",
"**********************",
"**********************",
"**********************",
"**********************",
"**********************",
"**********************"};
