/* XPM */
static char * hide_active_xpm[] = {
"22 22 10 1",
" 	c None",
".	c #777877",
"+	c #777878",
"@	c #797979",
"#	c #777778",
"$	c #787878",
"%	c #787777",
"&	c #787778",
"*	c #262626",
"=	c #A9A9A9",
"..++@@@####++++$$$%%&&",
"**********************",
"**********************",
"**********************",
"**********************",
"**********************",
"**********************",
"**********************",
"**********************",
"**********************",
"**********************",
"**********************",
"**********************",
"******==========******",
"******==========******",
"**********************",
"**********************",
"**********************",
"**********************",
"**********************",
"**********************",
"**********************"};
