/* XPM */
static char * menu_pressed_xpm[] = {
"22 22 23 1",
" 	c None",
".	c #777877",
"+	c #777878",
"@	c #797979",
"#	c #777778",
"$	c #787878",
"%	c #787777",
"&	c #787778",
"*	c #262626",
"=	c #FFFFFF",
"-	c #A5A5A5",
";	c #DADADA",
">	c #B2B2B2",
",	c #B0B2B0",
"'	c #CCCCCC",
")	c #535353",
"!	c #B0B2B2",
"~	c #545454",
"{	c #B3B3B3",
"]	c #C8CCCC",
"^	c #A7A7A7",
"/	c #B1B1B3",
"(	c #B3B1B1",
"..++@@@####++++$$$%%&&",
"**********************",
"**********************",
"**********************",
"**********************",
"**********************",
"**********************",
"**********==**********",
"*******-;>==>;-*******",
"*******;======;*******",
"*******,='))'=!*******",
"******===~**~===******",
"******===~**~===******",
"*******{=]~~]={*******",
"*******;======;*******",
"*******^;/==(;^*******",
"**********==**********",
"**********************",
"**********************",
"**********************",
"**********************",
"**********************"};
