/* XPM */
static char * menu_prelight_xpm[] = {
"22 22 24 1",
" 	c None",
".	c #777877",
"+	c #777878",
"@	c #797979",
"#	c #777778",
"$	c #787878",
"%	c #787777",
"&	c #787778",
"*	c #2E2E2E",
"=	c #262626",
"-	c #FFFFFF",
";	c #A4A2A4",
">	c #D9D3D9",
",	c #AFAFB1",
"'	c #B1B1AF",
")	c #D3D9D3",
"!	c #A2A4A2",
"~	c #DADADA",
"{	c #B2B2B2",
"]	c #CCCCCC",
"^	c #535353",
"/	c #545454",
"(	c #B3B3B3",
"_	c #A7A7A7",
"..++@@@####++++$$$%%&&",
"**********************",
"======================",
"======================",
"======================",
"======================",
"==========--==========",
"=======;>,--')!=======",
"=======~------~=======",
"======={-]^^]-{=======",
"======---^==^---======",
"======---/==/---======",
"=======(-]//]-(=======",
"=======~------~=======",
"=======_~(--(~_=======",
"==========--==========",
"======================",
"======================",
"======================",
"======================",
"======================",
"======================"};
