/* XPM */
static char * menu_active_xpm[] = {
"22 22 32 1",
" 	c None",
".	c #777877",
"+	c #777878",
"@	c #797979",
"#	c #777778",
"$	c #787878",
"%	c #787777",
"&	c #787778",
"*	c #2E2E2E",
"=	c #262626",
"-	c #A7A7A7",
";	c #706F70",
">	c #919191",
",	c #787877",
"'	c #6F706F",
")	c #909191",
"!	c #A5A7A7",
"~	c #A7A7A5",
"{	c #7A7A7A",
"]	c #A8A8A8",
"^	c #898989",
"/	c #404040",
"(	c #414141",
"_	c #A6A8A8",
":	c #7A7979",
"<	c #A8A6A6",
"[	c #8A8A8A",
"}	c #424242",
"|	c #A9A9A9",
"1	c #7B7B7B",
"2	c #939393",
"3	c #747474",
"..++@@@####++++$$$%%&&",
"**********************",
"======================",
"======================",
"======================",
"======================",
"==========--==========",
"=======;>#--,>'=======",
"=======)!--~~->=======",
"======={]^//^]{=======",
"======]]]/==/]]]======",
"======]]](==(__]======",
"=======:<[(}[|1=======",
"=======2||||||2=======",
"=======321||123=======",
"==========||==========",
"======================",
"======================",
"======================",
"======================",
"======================",
"======================"};
