/* XPM */
static char * shade_prelight_xpm[] = {
"22 22 18 1",
" 	c None",
".	c #777877",
"+	c #777878",
"@	c #797979",
"#	c #777778",
"$	c #787878",
"%	c #787777",
"&	c #787778",
"*	c #2E2E2E",
"=	c #262626",
"-	c #FFFFFF",
";	c #D6D6D6",
">	c #D9D9D9",
",	c #D5D5D5",
"'	c #C8C8C8",
")	c #D7D7D7",
"!	c #494949",
"~	c #C6C6C6",
"..++@@@####++++$$$%%&&",
"**********************",
"======================",
"======================",
"======================",
"======================",
"==========------======",
"==========------======",
"============;---======",
"===========>-,--======",
"=========='-)=--======",
"==========!~==--======",
"======================",
"======---=============",
"======---=============",
"======---=============",
"======================",
"======================",
"======================",
"======================",
"======================",
"======================"};
