/* XPM */
static char * title_5_active_xpm[] = {
"10 22 9 1",
" 	c None",
".	c #777877",
"+	c #777878",
"@	c #797979",
"#	c #777778",
"$	c #787878",
"%	c #787777",
"&	c #787778",
"*	c #262626",
".+@##++$%&",
"**********",
"**********",
"**********",
"**********",
"**********",
"**********",
"**********",
"**********",
"**********",
"**********",
"**********",
"**********",
"**********",
"**********",
"**********",
"**********",
"**********",
"**********",
"**********",
"**********",
"**********"};
