/* XPM */
static char * title_2_active_xpm[] = {
"10 22 10 1",
" 	c None",
".	c #777877",
"+	c #777878",
"@	c #797979",
"#	c #777778",
"$	c #787878",
"%	c #787777",
"&	c #787778",
"*	c #2E2E2E",
"=	c #262626",
".+@##++$%&",
"**********",
"==========",
"==========",
"==========",
"==========",
"==========",
"==========",
"==========",
"==========",
"==========",
"==========",
"==========",
"==========",
"==========",
"==========",
"==========",
"==========",
"==========",
"==========",
"==========",
"=========="};
